PathFileType	4	(X/Y/Z)	C:/Users/beibeiliu/ov580/test_trc/User3\sequence.49_training_dense_left.trc
DataRate	CameraRate	NumFrames	NumMarkers	Units	OrigDataRate	OrigDataStartFrame	OrigNumFrames
120	120	16	19	mm	120	1	87
Frame#	Time	ThumbCMC			ThumbMCP			ThumbIP			ThumbTip			IndexMCP			IndexPIP			IndexTip			MiddleMCP			MiddlePIP			MiddleTip			RingMCP			RingPIP			RingTip			PinkyMCP			PinkyPIP			PinkyTip			BackHand1			BackHand2			BackHand3	
		X0	Y0	Z0	X1	Y1	Z1	X2	Y2	Z2	X3	Y3	Z3	X4	Y4	Z4	X5	Y5	Z5	X6	Y6	Z6	X7	Y7	Z7	X8	Y8	Z8	X9	Y9	Z9	X10	Y10	Z10	X11	Y11	Z11	X12	Y12	Z12	X13	Y13	Z13	X14	Y14	Z14	X15	Y15	Z15	X16	Y16	Z16	X17	Y17	Z17	X18	Y18	Z18	
0	0	-78.7777	12.044	84.8616	-60.9189	4.70383	57.5995	-46.8795	0.47447	29.5452	-57.3264	-15.4048	2.60766	-110.787	39.3169	19.1956	-101.896	46.0035	-10.4403	-85.5499	28.1135	-35.8996	-137.824	34.4208	18.7242	-142.722	40.458	-13.8817	-129.713	19.676	-42.4339	-145.163	11.7047	13.6295	-143.331	2.82297	-13.5019	-122.798	-22.9438	-20.1106	-149.577	-18.8721	20.6837	-136.698	-33.3103	5.22133	-110.812	-46.3223	14.7782	-146.692	10.3073	65.3118	-144.945	1.95708	99.6498	-119.351	25.085	82.3231	
1	0.00833333	-82.9088	8.85753	83.4862	-64.3145	3.25729	56.4006	-56.6936	-3.10111	29.5796	-61.3293	-17.2934	3.73362	-114.844	36.9888	19.2821	-106.786	41.7972	-13.732	-90.126	22.0256	-33.695	-140.449	32.5113	17.4802	-143.775	36.5239	-11.5749	-127.638	10.6569	-38.0313	-149.866	5.99813	16.522	-141.699	-0.761935	-12.0581	-116.686	-29.0507	-12.9651	-148.861	-20.3755	25.6357	-131.828	-39.1027	6.05464	-111.757	-52.2155	17.0995	-149.332	3.78452	69.2498	-147.106	0.870257	98.002	-120.829	22.6133	81.2921	
2	0.0166667	-84.1772	6.35239	85.8818	-67.5584	0.883686	59.9955	-54.2795	-2.78259	27.4342	-57.7854	-15.1238	8.7194	-112.623	37.0578	16.5711	-109.59	38.5842	-11.4809	-90.2209	24.7169	-31.5804	-141.953	24.6858	19.4848	-143.577	29.3719	-13.597	-124.54	7.20358	-37.4205	-145.681	4.36555	18.9978	-139.614	-7.14952	-13.5422	-118.009	-31.6855	-13.4131	-150.738	-24.487	24.6166	-135.339	-41.0929	5.43742	-112.701	-52.8531	14.9979	-150.887	-0.015943	68.6534	-146.724	-3.19323	97.2216	-123.175	18.1431	83.6868	
3	0.025	-82.5698	12.1181	80.2241	-67.3696	5.52379	57.4852	-51.2665	4.32815	31.9191	-45.7247	-5.11991	11.6762	-114.901	32.4577	13.9104	-105.749	39.5151	-16.2479	-95.5957	25.7649	-35.5959	-139.12	19.9808	16.6909	-143.1	22.5932	-19.0234	-126.687	2.9721	-43.8271	-145.724	0.157158	15.0744	-143.371	-9.69873	-15.502	-123.67	-27.4686	-26.179	-146.33	-26.7806	26.4524	-137.802	-39.325	0.729765	-114.799	-55.9535	-2.00946	-147.965	-3.41459	63.0717	-149.485	-7.77006	93.5751	-123.742	18.7226	77.8308	
4	0.0333333	-86.4835	18.1356	79.4942	-63.8347	19.6553	54.408	-43.635	22.3389	34.6181	-31.4473	16.327	13.3196	-114.21	31.6291	10.3977	-110.763	38.7163	-17.7827	-96.1369	35.3878	-42.9426	-140.064	16.5152	4.51162	-141.194	15.5419	-27.821	-130.702	4.60365	-54.2471	-145.659	-12.5181	11.4467	-144.661	-15.6602	-21.0532	-129.31	-32.5447	-41.0018	-144.495	-38.9353	22.7557	-139.028	-45.1752	-0.00572011	-122.639	-61.2731	-16.5241	-146.757	-7.83616	58.6348	-144.048	-5.57942	86.9691	-125.153	17.4851	70.9683	
5	0.0416667	-88.5759	22.0319	71.3187	-66.2401	25.7668	53.2799	-45.0596	32.006	31.4924	-27.3474	33.3726	16.8365	-114.605	27.8393	5.63816	-112.706	32.2502	-26.3326	-102.102	36.1808	-47.3518	-140.059	4.58949	-0.838639	-142.294	8.30492	-29.4618	-137.508	-0.174668	-60.4369	-142.464	-21.2428	7.21112	-144.834	-25.8883	-22.8098	-138.372	-35.8975	-45.1571	-138.312	-44.1372	20.2964	-135.579	-52.7629	0.947345	-125.849	-68.6403	-18.9082	-142.714	-11.1468	57.5307	-143.462	-12.709	84.6681	-125.242	17.2824	67.0548	
6	0.05	-91.7322	23.3843	69.6609	-68.7563	28.8114	51.5182	-49.8846	33.7104	35.3339	-33.5331	39.3399	19.2288	-120.707	20.0679	-2.56759	-115.641	29.0737	-23.4896	-110.807	30.98	-49.3664	-141.857	-4.05718	-3.55193	-144.075	0.624894	-28.3364	-143.706	-3.12452	-63.3827	-138.35	-25.0914	6.68056	-142.349	-32.7203	-21.202	-137.457	-40.1301	-50.7403	-134.167	-54.1812	19.264	-128.345	-64.5686	-3.76359	-119.93	-75.8582	-20.7828	-140.769	-18.1193	55.9349	-144.348	-20.5032	84.8061	-131.522	9.92654	66.4324	
7	0.0583333	-100.162	22.2183	73.0763	-77.8729	28.4509	52.7618	-58.2957	41.2654	30.4507	-42.6476	47.2297	17.7385	-128.858	14.2387	-1.43254	-125.138	23.6211	-28.6739	-122.911	24.2749	-50.2188	-145.211	-12.0677	-3.01173	-149.499	-11.0564	-28.6115	-148.161	-11.0444	-65.482	-137.914	-34.3409	5.16676	-137.621	-46.3479	-21.7066	-127.78	-53.4282	-45.9309	-128.371	-62.2092	16.8857	-118.347	-69.3578	-0.170996	-98.6434	-79.0658	-19.1982	-144.002	-31.5444	56.7855	-144.934	-28.7102	83.3694	-137.216	5.96608	64.9373	
8	0.0666667	-106.6	17.2593	69.8304	-85.5871	24.4391	48.2092	-69.4413	34.1922	28.4008	-53.5287	41.6288	8.74131	-135.627	4.76582	1.83801	-135.499	13.4885	-28.9799	-129.5	20.4694	-53.8894	-146.832	-22.9884	1.75538	-153.027	-27.3012	-30.6388	-149.271	-27.7478	-61.7198	-134.377	-47.225	4.47101	-126.432	-57.1223	-20.8589	-103.975	-59.7344	-42.9215	-118.882	-68.4288	22.1975	-102.606	-72.1654	3.67975	-76.0226	-74.2133	-7.62531	-142.546	-39.0862	56.0849	-143.569	-38.373	87.8711	-140.169	-5.12957	66.6388	
9	0.075	-112.575	11.5714	71.632	-90.2989	24.89	48.0353	-74.974	34.4271	28.2137	-60.0075	31.2475	8.86169	-139.815	-1.7064	1.86735	-141.898	2.78986	-23.9811	-136.169	9.23884	-51.4615	-147.4	-31.2475	0.0896259	-150.493	-34.0324	-29.333	-140.803	-38.452	-60.314	-127.273	-51.2918	3.02154	-111.817	-63.0753	-17.5351	-81.3796	-59.7845	-28.5525	-110.225	-67.2379	23.7094	-84.5092	-69.3138	9.87394	-60.8854	-60.9795	8.05905	-141.92	-49.2865	58.0491	-143.725	-45.3679	85.0711	-143.671	-11.1486	67.7937	
10	0.0833333	-116.024	11.4754	69.4449	-94.8855	21.6031	48.0466	-78.1724	30.1958	24.9603	-62.021	26.7541	3.71185	-142.196	-7.98819	1.4105	-144.433	1.95844	-24.2203	-135.811	5.99602	-53.0029	-145.783	-38.3268	-1.52423	-144.478	-40.9967	-29.4548	-126.223	-47.0399	-58.2547	-118.215	-58.8962	6.60488	-97.3964	-60.69	-13.9909	-64.6633	-50.5315	-14.889	-102.944	-66.1477	24.7209	-76.1928	-61.6922	15.6516	-54.7568	-48.8466	21.865	-139.906	-53.3047	58.5203	-140.958	-48.895	84.5329	-145.699	-17.8418	67.2788	
11	0.0916667	-117.174	8.29062	72.7451	-97.2472	25.1222	48.951	-81.5443	32.4484	24.8551	-66.5269	22.1053	5.43622	-144.488	-6.67144	1.68472	-146.075	2.52494	-26.6772	-136.709	6.85877	-49.3957	-143.089	-38.534	0.156733	-137.993	-43.8064	-32.8758	-108.33	-41.8772	-56.7077	-114.57	-54.9901	7.51155	-90.4949	-51.6059	-11.6295	-60.4702	-43.0542	-3.30732	-96.4557	-60.3252	20.6484	-75.0877	-53.99	18.6648	-51.7104	-39.2574	32.1829	-139.854	-54.489	55.7125	-140.261	-52.4007	86.3482	-144.701	-16.2688	65.2077	
12	0.1	-120.553	8.99854	67.9241	-100.362	21.5238	47.2611	-84.303	34.789	23.6137	-68.795	26.3638	2.18811	-146.741	-4.64675	0.148577	-147.987	5.65668	-26.734	-136.057	10.4603	-49.0145	-141.946	-34.9669	-4.54953	-129.52	-38.6488	-35.8468	-97.4216	-33.599	-47.0814	-111.219	-52.4045	4.38961	-83.2897	-41.9311	-10.1091	-59.7665	-30.9721	8.01611	-95.851	-60.4965	22.3964	-72.7095	-49.1748	19.312	-54.891	-29.566	37.4152	-137.776	-49.1541	52.0039	-139.283	-49.1945	86.4258	-145.145	-17.8204	66.7768	
13	0.108333	-123.776	11.4814	70.4058	-106.058	27.9277	44.4658	-91.714	37.5691	19.9248	-73.7312	29.8379	0.283683	-144.431	-12.5777	0.751125	-148.295	-3.56213	-28.0477	-130.423	5.75322	-54.2963	-135.296	-37.2373	-9.60633	-116.649	-32.9458	-36.4097	-83.1942	-21.179	-34.0072	-105.183	-47.0198	1.58791	-79.2377	-38.5851	-6.52141	-61.4714	-22.0651	16.2822	-90.9931	-53.1879	17.8807	-66.2579	-39.6596	21.8186	-59.22	-22.511	41.4509	-134.108	-51.2112	50.3789	-138.714	-51.2881	81.915	-148.331	-20.5139	66.448	
14	0.116667	-132.495	10.2634	66.0759	-117.393	27.4644	44.5875	-104.058	40.5695	19.5079	-86.2439	36.9259	-0.166006	-142.066	-23.6431	-4.62324	-142.241	-19.7022	-33.4972	-124.336	-8.27214	-56.102	-123.936	-39.4692	-9.36055	-101.909	-30.7437	-33.7742	-70.0188	-11.4351	-14.6654	-97.3778	-46.1659	2.79395	-70.5684	-31.3323	-2.57375	-63.5828	-13.3377	21.5192	-80.6222	-54.1861	19.0465	-62.2036	-37.0471	19.8162	-60.3734	-14.8167	45.9105	-126.983	-58.8314	52.7933	-131.499	-53.0589	80.1417	-146.308	-28.175	60.955	
15	0.125	-138.674	3.72484	62.422	-127.144	21.7097	38.1515	-118.119	37.1742	11.1897	-102.863	43.0054	-2.95439	-138.168	-33.7984	-5.12676	-136.39	-32.11	-36.6636	-112.753	-21.2924	-58.2792	-111.788	-46.2205	-8.87796	-88.398	-25.882	-29.8907	-71.2473	-3.67021	-5.6717	-90.24	-48.5028	5.00465	-68.6439	-27.3046	-1.80595	-65.9422	-8.51741	25.6848	-73.8289	-53.8885	21.0646	-60.4202	-30.8987	18.3995	-65.2813	-9.24545	40.497	-119.258	-60.7659	49.7815	-126.102	-57.949	80.6072	-146.489	-36.5003	55.8017	
